<?xml version="1.0" encoding="UTF-8"?>
<svg id="Layer_1" data-name="Layer 1" xmlns="http://www.w3.org/2000/svg" viewBox="0 0 514.48 170.31">
  <defs>
    <style>
      .cls-1 {
        fill: none;
        stroke: #fff;
        stroke-miterlimit: 10;
        stroke-width: 3px;
      }

      .cls-2 {
        fill: #fff;
      }
    </style>
  </defs>
  <path class="cls-1" d="M512.98,146.2c0,12.49-10.12,22.61-22.6,22.61H24.11c-12.49,0-22.61-10.13-22.61-22.61V24.11C1.5,11.62,11.62,1.5,24.11,1.5h466.27c12.48,0,22.6,10.12,22.6,22.61v122.09Z"/>
  <g>
    <path class="cls-2" d="M134.88,112.09c-2.71,6-4,8.68-7.49,13.98-4.87,7.41-11.72,16.63-20.21,16.71-7.55.07-9.49-4.91-19.73-4.86-10.24.06-12.38,4.94-19.93,4.88-8.49-.08-14.99-8.41-19.86-15.81-13.6-20.71-15.02-45.01-6.64-57.93,5.96-9.18,15.37-14.56,24.21-14.56s14.66,4.94,22.11,4.94,11.62-4.95,22.03-4.95c7.87,0,16.21,4.28,22.15,11.69-19.46,10.67-16.3,38.47,3.36,45.9Z"/>
    <path class="cls-2" d="M101.47,46.23c3.78-4.85,6.65-11.71,5.61-18.72-6.18.43-13.41,4.36-17.63,9.48-3.83,4.65-6.99,11.55-5.76,18.26,6.74.21,13.72-3.82,17.77-9.02Z"/>
  </g>
  <g>
    <path class="cls-2" d="M176.32,68.75l-19.49,57.36h8.92l5.82-17.61h18.87l5.98,17.61h9.17l-19.57-57.36h-9.7ZM180.94,78.18c.66,2.56,1.37,5.22,2.28,8.09l5.25,15.21h-14.95l5.18-15.31c.79-2.48,1.54-5.16,2.24-7.99Z"/>
    <path class="cls-2" d="M230.81,83.62c-5.91,0-10.64,2.28-13.8,6.62l-.35-5.71h-7.94l.05.73c.23,3.55.33,7.47.33,13.08v44.21h8.68v-20.63c2.69,3.22,6.99,5.1,11.86,5.1s9.74-1.99,13.15-5.59c3.8-4.02,5.81-9.79,5.81-16.69,0-6.1-1.74-11.37-5.04-15.24-3.23-3.79-7.76-5.88-12.75-5.88ZM228.65,90.8c7.74,0,11.2,7.17,11.2,14.27,0,9.16-4.42,14.85-11.53,14.85-4.85,0-9.05-3.3-10.22-8.05-.2-.74-.31-1.71-.31-2.81v-6.98c0-.63.14-1.4.28-2.14.04-.24.09-.47.12-.7,1.29-4.97,5.59-8.43,10.46-8.43Z"/>
    <path class="cls-2" d="M275.49,83.62c-5.91,0-10.64,2.28-13.8,6.62l-.35-5.71h-7.94l.04.73c.24,3.56.34,7.47.34,13.08v44.21h8.68v-20.63c2.69,3.22,6.99,5.1,11.86,5.1s9.75-1.99,13.16-5.59c3.8-4.02,5.8-9.79,5.8-16.69,0-6.1-1.74-11.37-5.04-15.24-3.23-3.79-7.76-5.88-12.75-5.88ZM273.33,90.8c7.73,0,11.2,7.17,11.2,14.27,0,9.16-4.42,14.85-11.53,14.85-4.85,0-9.06-3.3-10.22-8.05-.2-.74-.31-1.71-.31-2.81v-6.98c0-.64.14-1.41.28-2.15.04-.23.09-.47.13-.7,1.29-4.97,5.59-8.43,10.46-8.43Z"/>
    <path class="cls-2" d="M331.48,93.05c-8.1-3.14-10.69-5.6-10.69-10.16,0-3.84,3.05-7.71,9.86-7.71,5.62,0,9.22,1.96,10.19,2.56l.74.45,2.45-7.24-.48-.28c-1.45-.85-5.6-2.83-12.64-2.83-11.07,0-18.8,6.53-18.8,15.88,0,7.54,4.84,12.81,15.23,16.59,7.36,2.75,10.11,5.57,10.11,10.41,0,5.47-4.23,8.87-11.03,8.87-4.43,0-8.99-1.29-12.51-3.55l-.75-.48-2.33,7.41.43.28c3.28,2.19,9.44,3.77,14.67,3.77,14.91,0,20.2-9.09,20.2-16.88s-4.24-12.98-14.64-17.08Z"/>
    <path class="cls-2" d="M361.74,74.65l-8.51,2.67v7.21h-6.23v6.94h6.23v21.25c0,5.14.98,8.74,3,11.01,1.94,2.13,4.92,3.3,8.4,3.3,3.28,0,5.61-.65,6.71-1.04l.49-.17-.42-6.95-.83.26c-1.1.34-2.22.47-4.04.47-3.36,0-4.8-2.13-4.8-7.12v-21h10.47v-6.94h-10.47v-9.88Z"/>
    <path class="cls-2" d="M393.71,83.62c-12.14,0-20.62,9.06-20.62,22.03s8.21,21.37,19.96,21.37h.08c9.93,0,20.62-6.92,20.62-22.12,0-6.18-1.91-11.49-5.53-15.35-3.64-3.88-8.66-5.94-14.51-5.94ZM393.46,90.47c7.81,0,11.36,7.61,11.36,14.68,0,8.7-4.85,15.01-11.53,15.01h-.08c-6.58,0-11.36-6.21-11.36-14.76,0-7.43,3.59-14.94,11.61-14.94Z"/>
    <path class="cls-2" d="M440.33,84.02l-.52-.13c-.76-.19-1.39-.27-2.16-.27-4.54,0-8.61,2.67-10.88,6.99l-.25-6.07h-7.79l.05.73c.23,3.44.33,7.29.33,12.5l-.08,28.35h8.68v-22.12c0-1.2.08-2.34.24-3.36.98-5.31,4.56-8.75,9.13-8.75.89,0,1.59.07,2.33.15l.93.1v-8.1Z"/>
    <path class="cls-2" d="M459.84,83.54c-11.55,0-19.62,9.23-19.62,22.45s8.03,20.95,20.45,20.95c6.53,0,11.08-1.43,13.74-2.64l.52-.24-1.67-6.47-.72.29c-2.36.96-5.51,1.94-10.87,1.94-3.77,0-12.47-1.24-13-12.58l28.01.08.11-.55c.18-.88.26-2.07.26-3.62,0-9.05-4.51-19.63-17.21-19.63ZM459.26,90.14c2.64,0,4.79.82,6.37,2.43,2.5,2.54,2.93,6.28,2.99,8.08h-19.79c.81-5.01,3.94-10.51,10.43-10.51Z"/>
  </g>
  <g>
    <path class="cls-2" d="M158.44,26.49c1.65-.25,3.62-.44,5.77-.44,3.9,0,6.68.9,8.52,2.62,1.87,1.72,2.96,4.15,2.96,7.55s-1.06,6.24-3.03,8.17c-1.97,1.97-5.21,3.03-9.29,3.03-1.93,0-3.56-.09-4.93-.25v-20.68ZM161.15,45.08c.69.12,1.69.16,2.74.16,5.8,0,8.95-3.24,8.95-8.92.03-4.96-2.78-8.11-8.52-8.11-1.4,0-2.46.13-3.18.28v16.59Z"/>
    <path class="cls-2" d="M182.17,27.89c.03.94-.66,1.68-1.75,1.68-.97,0-1.65-.75-1.65-1.68s.72-1.72,1.71-1.72,1.69.75,1.69,1.72ZM179.12,47.23v-15.1h2.74v15.1h-2.74Z"/>
    <path class="cls-2" d="M186.04,44.42c.81.53,2.25,1.09,3.62,1.09,2,0,2.93-1,2.93-2.25,0-1.31-.78-2.03-2.81-2.78-2.71-.97-3.99-2.46-3.99-4.27,0-2.43,1.96-4.43,5.21-4.43,1.53,0,2.87.44,3.71.94l-.69,2c-.59-.37-1.69-.87-3.09-.87-1.62,0-2.53.94-2.53,2.06,0,1.25.9,1.81,2.87,2.56,2.62,1,3.96,2.31,3.96,4.55,0,2.65-2.06,4.52-5.65,4.52-1.65,0-3.18-.41-4.24-1.03l.69-2.09Z"/>
    <path class="cls-2" d="M198.77,37.06c0-1.93-.06-3.49-.12-4.93h2.46l.13,2.59h.06c1.12-1.84,2.9-2.93,5.36-2.93,3.65,0,6.39,3.09,6.39,7.67,0,5.43-3.31,8.11-6.86,8.11-2,0-3.74-.87-4.65-2.37h-.06v8.2h-2.71v-16.34ZM201.48,41.09c0,.41.06.78.13,1.12.5,1.9,2.15,3.21,4.12,3.21,2.9,0,4.59-2.37,4.59-5.83,0-3.03-1.59-5.61-4.49-5.61-1.87,0-3.62,1.34-4.15,3.4-.09.34-.19.75-.19,1.12v2.59Z"/>
    <path class="cls-2" d="M230.17,39.56c0,5.58-3.87,8.02-7.52,8.02-4.09,0-7.24-2.99-7.24-7.77,0-5.05,3.31-8.02,7.49-8.02s7.27,3.15,7.27,7.77ZM218.2,39.71c0,3.31,1.9,5.8,4.59,5.8s4.59-2.46,4.59-5.86c0-2.56-1.28-5.8-4.52-5.8s-4.65,2.99-4.65,5.86Z"/>
    <path class="cls-2" d="M233.63,36.22c0-1.56-.03-2.84-.12-4.09h2.43l.16,2.5h.06c.75-1.43,2.5-2.84,4.99-2.84,2.09,0,5.33,1.25,5.33,6.43v9.01h-2.74v-8.7c0-2.43-.9-4.46-3.49-4.46-1.81,0-3.21,1.28-3.68,2.81-.13.34-.19.81-.19,1.28v9.08h-2.74v-11.01Z"/>
    <path class="cls-2" d="M256.53,25.61l-3.81,4.46h-1.96l2.74-4.46h3.03ZM250.94,47.23v-15.1h2.74v15.1h-2.74Z"/>
    <path class="cls-2" d="M259.3,32.13l2.96,8.48c.5,1.37.9,2.62,1.22,3.87h.09c.34-1.25.78-2.5,1.28-3.87l2.93-8.48h2.87l-5.93,15.1h-2.62l-5.74-15.1h2.93Z"/>
    <path class="cls-2" d="M274.46,40.18c.06,3.71,2.43,5.24,5.18,5.24,1.96,0,3.15-.34,4.18-.78l.47,1.96c-.97.44-2.62.94-5.02.94-4.65,0-7.42-3.06-7.42-7.61s2.68-8.14,7.08-8.14c4.93,0,6.24,4.34,6.24,7.11,0,.56-.06,1-.09,1.28h-10.6ZM282.51,38.22c.03-1.75-.72-4.46-3.81-4.46-2.78,0-3.99,2.56-4.21,4.46h8.02Z"/>
    <path class="cls-2" d="M288.55,25.08h2.74v22.15h-2.74v-22.15Z"/>
    <path class="cls-2" d="M304.05,40.18c.06,3.71,2.43,5.24,5.18,5.24,1.96,0,3.15-.34,4.18-.78l.47,1.96c-.97.44-2.62.94-5.02.94-4.65,0-7.42-3.06-7.42-7.61s2.68-8.14,7.08-8.14c4.93,0,6.24,4.34,6.24,7.11,0,.56-.06,1-.09,1.28h-10.6ZM312.1,38.22c.03-1.75-.72-4.46-3.81-4.46-2.78,0-3.99,2.56-4.21,4.46h8.02Z"/>
    <path class="cls-2" d="M318.15,36.22c0-1.56-.03-2.84-.12-4.09h2.4l.12,2.43h.09c.84-1.43,2.25-2.78,4.74-2.78,2.06,0,3.62,1.25,4.27,3.03h.06c.47-.84,1.06-1.5,1.69-1.97.9-.69,1.9-1.06,3.34-1.06,2,0,4.96,1.31,4.96,6.55v8.89h-2.68v-8.55c0-2.9-1.06-4.65-3.28-4.65-1.56,0-2.78,1.15-3.24,2.5-.12.37-.22.87-.22,1.37v9.33h-2.68v-9.05c0-2.4-1.06-4.15-3.15-4.15-1.72,0-2.96,1.37-3.4,2.74-.16.41-.22.87-.22,1.34v9.11h-2.68v-11.01Z"/>
  </g>
</svg>