<?xml version="1.0" encoding="UTF-8"?>
<svg id="Modo_de_isolamento" data-name="Modo de isolamento" xmlns="http://www.w3.org/2000/svg" viewBox="0 0 83.22 83.22">
  <defs>
    <style>
      .cls-1 {
        fill: #00ae9d;
      }
    </style>
  </defs>
  <path class="cls-1" d="M81.14,37.45h-6.24v-11.41c0-14.36-11.68-26.04-26.04-26.04h-14.49C20,0,8.32,11.68,8.32,26.04v11.41H2.08c-1.15,0-2.08.93-2.08,2.08v41.61c0,1.15.93,2.08,2.08,2.08h79.06c1.15,0,2.08-.93,2.08-2.08v-41.61c0-1.15-.93-2.08-2.08-2.08ZM12.48,26.04c0-12.07,9.82-21.88,21.88-21.88h14.49c12.07,0,21.88,9.82,21.88,21.88v11.41h-4.16v-8.38c0-13.05-7.21-20.84-19.29-20.84h-9.8c-12.66,0-20.84,8.18-20.84,20.84v8.38h-4.16v-11.41ZM62.41,29.07v8.38H20.8v-8.38c0-12.3,8.62-16.68,16.68-16.68h9.8c9.76,0,15.13,5.92,15.13,16.68ZM79.06,79.06H4.16v-37.45h74.9v37.45Z"/>
  <path class="cls-1" d="M35.29,74.9h12.63c1.38,0,2.36-1.36,1.92-2.67l-3.72-11.15c2.33-1.51,3.8-4.11,3.8-6.98,0-5.06-4.53-9.07-9.75-8.2-3.28.55-5.97,3.09-6.69,6.34-.79,3.58.77,7.02,3.6,8.85l-3.72,11.15c-.44,1.31.54,2.67,1.92,2.67ZM38.25,70.73l3.35-10.06,3.35,10.06h-6.71ZM41.61,49.93c2.57,0,4.6,2.34,4.08,5-.29,1.5-1.46,2.67-2.91,3.16,0,0-.37.19-1.17.19-.72,0-1.17-.19-1.17-.19-1.45-.48-2.61-1.66-2.91-3.16-.52-2.66,1.51-5,4.08-5Z"/>
</svg>
