<?xml version="1.0" encoding="UTF-8"?>
<svg id="Modo_de_isolamento" data-name="Modo de isolamento" xmlns="http://www.w3.org/2000/svg" viewBox="0 0 81.98 79.51">
  <defs>
    <style>
      .cls-1 {
        fill: #003641;
      }
    </style>
  </defs>
  <path class="cls-1" d="M74.81,62.18c4.52-6.39,7.17-14.11,7.17-22.43C81.98,17.84,63.6,0,41.01,0c0,0,0,0-.01,0,0,0,0,0,0,0,0,0,0,0,0,0C18.39,0,0,17.83,0,39.76s18.39,39.76,40.99,39.76c0,0,0,0,0,0,0,0,0,0,0,0,0,0,0,0,.01,0,8.55,0,16.49-2.56,23.06-6.92l6.17,6.3c.38.39.91.61,1.46.62,0,0,.02,0,.02,0,.55,0,1.07-.21,1.45-.59l8.19-8c.39-.38.61-.9.6-1.44-.01-.54-.25-1.05-.65-1.42l-6.51-5.89ZM27.43,6.48c-1.49,1.59-2.89,3.45-4.15,5.57-1.06,1.78-2.01,3.7-2.83,5.73-2.33-1.82-3.67-3.59-4.25-4.49,3.27-2.88,7.07-5.2,11.24-6.81ZM13.26,16.19c1.05,1.44,2.88,3.54,5.77,5.56-1.53,4.93-2.43,10.36-2.6,16.01H4.16c.47-8.24,3.82-15.74,9.1-21.58ZM14.23,64.35c-5.83-5.97-9.57-13.88-10.07-22.61h12.27c.18,6.11,1.21,11.97,2.99,17.21-2.7,2.07-4.33,4.13-5.19,5.4ZM17.28,67.14c.33-.56,1.44-2.3,3.67-4.22.7,1.59,1.48,3.11,2.33,4.54,1.27,2.13,2.66,3.99,4.15,5.57-3.72-1.43-7.14-3.43-10.16-5.89ZM38.95,75.35c-4.51-.8-8.75-4.24-12.12-9.89-.92-1.55-1.75-3.22-2.48-4.98,4.01-2.37,8.98-3.79,14.6-4.2v19.07ZM38.95,52.29c-6.94.44-12.15,2.22-15.99,4.35-1.42-4.57-2.26-9.62-2.42-14.9h18.42v10.55ZM38.95,37.77h-18.42c.15-4.88.88-9.57,2.11-13.86,3.99,2.01,9.31,3.61,16.3,3.87v9.99ZM38.95,23.8c-5.74-.24-10.84-1.52-15.01-3.75.83-2.14,1.79-4.16,2.89-6,3.37-5.64,7.61-9.08,12.12-9.89v19.64ZM71.77,59.44l-4.08-3.69,2.97-2.88c.57-.55.75-1.37.47-2.1-.28-.73-.97-1.23-1.77-1.29l-4.46-.32c.36-2.41.58-4.88.66-7.41h12.26c-.37,6.51-2.55,12.56-6.05,17.69ZM69.47,17.04c4.85,5.7,7.91,12.88,8.35,20.73h-12.26c-.16-5.47-1.01-10.74-2.45-15.54,3.01-1.84,5.08-3.77,6.36-5.18ZM66.67,14.09c-.91,1.05-2.51,2.64-4.91,4.22-.88-2.23-1.89-4.32-3.04-6.25-1.27-2.12-2.66-3.98-4.15-5.57,4.54,1.75,8.65,4.35,12.1,7.6ZM43.05,4.16c4.51.8,8.75,4.24,12.12,9.89,1.15,1.92,2.14,4.03,2.99,6.28-3.6,1.7-8.58,3.21-15.11,3.48V4.16ZM43.05,27.78c6.85-.25,12.24-1.74,16.38-3.61,1.19,4.22,1.88,8.82,2.03,13.6h-18.42v-9.99ZM43.05,41.74h18.42c-.08,2.42-.3,4.8-.65,7.11l-8.89-.65c-.6-.04-1.18.17-1.6.58-.42.41-.64.98-.59,1.55l.18,2.39c-2.11-.31-4.39-.5-6.86-.53v-10.45ZM43.05,75.35v-19.19c2.63.04,5.01.28,7.18.65l.81,10.44c.06.77.58,1.45,1.33,1.72.1.04.21.06.31.08l-.04.03c-2.86,3.49-6.15,5.65-9.59,6.26ZM54.57,73.02c1.49-1.59,2.88-3.44,4.15-5.57.04-.07.08-.14.12-.21l2.37,2.42c-2.08,1.33-4.3,2.46-6.64,3.36ZM71.77,74.67l-12.86-13.14c-.38-.39-.91-.61-1.46-.62,0,0-.02,0-.03,0-.54,0-1.06.21-1.45.58l-1.18,1.14-.8-10.3,10.62.77-1.31,1.27c-.39.38-.61.9-.6,1.44,0,.54.24,1.05.65,1.42l13.63,12.33-5.21,5.09Z"/>
</svg>