<?xml version="1.0" encoding="UTF-8"?>
<svg id="Modo_de_isolamento" data-name="Modo de isolamento" xmlns="http://www.w3.org/2000/svg" viewBox="0 0 82.29 79.82">
  <defs>
    <style>
      .cls-1 {
        fill: #003641;
      }
    </style>
  </defs>
  <path class="cls-1" d="M41.15,79.82C18.46,79.82,0,61.91,0,39.91S18.46,0,41.15,0s41.15,17.9,41.15,39.91-18.46,39.91-41.15,39.91ZM41.15,3.99C20.73,3.99,4.11,20.1,4.11,39.91s16.61,35.92,37.03,35.92,37.03-16.11,37.03-35.92S61.57,3.99,41.15,3.99Z"/>
  <path class="cls-1" d="M43.2,55.86h-8.23c-1.14,0-2.06-.89-2.06-2v-17.94c0-1.1.92-2,2.06-2h12.34v-10h-10.29v2c0,1.1-.92,2-2.06,2h-8.23c-1.14,0-2.06-.89-2.06-2v-11.97c0-1.1.92-2,2.06-2h30.86c1.14,0,2.06.89,2.06,2v29.96c0,1.1-.92,2-2.06,2h-12.34v7.95c0,1.1-.92,2-2.06,2ZM37.03,51.87h4.11v-7.95c0-1.1.92-2,2.06-2h12.34V15.95h-26.75v7.98h4.11v-2c0-1.1.92-2,2.06-2h14.4c1.14,0,2.06.89,2.06,2v13.99c0,1.1-.92,2-2.06,2h-12.34v13.95Z"/>
  <path class="cls-1" d="M43.2,71.82h-8.23c-1.14,0-2.06-.89-2.06-2v-7.98c0-1.1.92-2,2.06-2h8.23c1.14,0,2.06.89,2.06,2v7.98c0,1.1-.92,2-2.06,2ZM37.03,67.83h4.11v-3.99h-4.11v3.99Z"/>
</svg>