<?xml version="1.0" encoding="UTF-8"?>
<svg id="Layer_1" data-name="Layer 1" xmlns="http://www.w3.org/2000/svg" viewBox="0 0 81.13 78.66">
  <defs>
    <style>
      .cls-1 {
        fill: #003641;
      }
    </style>
  </defs>
  <path class="cls-1" d="M75.15,53.93c-3.32-3.92-8.71-5.94-13.93-7.89-1.95-.73-3.95-1.48-5.8-2.32l-5.79-2.91c1.93-1.82,3.45-4.21,4.33-6.97,0-.02.01-.03.02-.05.02-.06.04-.12.05-.18,2.18-2.24,4.25-5.98,4.25-9.72,0-2.03-.2-3.48-1.22-4.45-.07-.07-.15-.14-.24-.21l-.08-5.15c0-.54-.1-5.86-4.14-9.84C49.73,1.43,45.69,0,40.56,0h0c-5.12,0-9.16,1.43-12.02,4.24-4.05,3.98-4.14,9.31-4.14,9.85l-.08,5.14c-.09.07-.18.14-.25.21-1.02.97-1.22,2.42-1.22,4.45,0,3.73,2.08,7.47,4.26,9.72.02.05.03.1.04.14,0,.03.02.06.03.09.88,2.74,2.4,5.12,4.32,6.94l-6.37,3.2c-1.7.74-3.5,1.42-5.25,2.07-5.2,1.95-10.58,3.96-13.91,7.88C1.99,58.68.04,63.54,0,68.81v.46s0,.07,0,.1c0,.14.01.29.01.43,0,.17,0,.33.02.5,0,.01,0,.03,0,.04.25,3.67,4.43,4.61,6.21,5.01.04,0,.08.02.12.02,13.61,2.24,24.43,3.28,34.04,3.28h.3c9.61,0,20.44-1.04,34.05-3.28.04,0,.08-.01.12-.02,1.78-.4,5.96-1.35,6.21-5.01,0-.01,0-.02,0-.04v-.13c.02-.29.04-.59.04-.9v-.47c-.04-5.26-1.99-10.13-5.98-14.87ZM77.13,69.27c0,.24-.01.47-.02.69v.09c-.04.23-.38.78-3.06,1.39-13.39,2.2-23.98,3.22-33.34,3.22h-.32c-9.35,0-19.94-1.02-33.31-3.22-2.71-.62-3.03-1.16-3.04-1.37,0,0-.02-.69-.03-.85v-.41c.03-4.27,1.67-8.3,5.03-12.31,2.64-3.1,7.52-4.93,12.25-6.7,1.7-.64,3.63-1.36,5.45-2.15l.2-.09,11.47-5.76-4.14-3.92c-1.47-1.39-2.59-3.19-3.25-5.22-.03-.11-.05-.18-.08-.26l-.29-.9-.66-.68c-1.56-1.6-3.12-4.37-3.12-6.93,0-.98.06-1.44.11-1.65l1.33-1.02.1-7.08c0-.11.02-4.18,2.95-7.06,2.08-2.05,5.18-3.09,9.22-3.09,4.04,0,7.14,1.04,9.22,3.1,2.92,2.88,2.95,6.94,2.95,6.98l.11,7.15,1.32,1.02c.05.2.11.66.11,1.65,0,2.57-1.57,5.33-3.12,6.93l-.67.69-.36,1.17c-.63,1.99-1.76,3.82-3.25,5.22l-4.15,3.92,10.97,5.51.08.03c1.98.89,4.05,1.67,6.04,2.42,4.74,1.77,9.63,3.61,12.28,6.73,3.35,3.99,5,8.02,5.03,12.31v.45Z"/>
</svg>