<?xml version="1.0" encoding="UTF-8"?>
<svg id="Modo_de_isolamento" data-name="Modo de isolamento" xmlns="http://www.w3.org/2000/svg" viewBox="0 0 83.25 74.86">
  <defs>
    <style>
      .cls-1 {
        fill: #003641;
      }
    </style>
  </defs>
  <path class="cls-1" d="M81.17,70.7h-6.3V22.81c0-.84-.5-1.6-1.28-1.92-.77-.32-1.67-.15-2.26.44l-12.49,12.3c-.4.39-.62.93-.62,1.48v35.59h-8.23v-20.74c0-.61-.27-1.2-.74-1.59l-12.49-10.52c-.62-.52-1.48-.64-2.22-.3-.73.34-1.2,1.08-1.2,1.89v31.26h-8.36v-31.23c0-.81-.47-1.54-1.2-1.89-.73-.34-1.6-.23-2.22.29l-12.49,10.49c-.47.4-.74.98-.74,1.59v20.74H2.08c-1.15,0-2.08.93-2.08,2.08s.93,2.08,2.08,2.08h79.09c1.15,0,2.08-.93,2.08-2.08s-.93-2.08-2.08-2.08ZM20.8,70.7h-8.33v-19.77l8.33-6.99v26.76ZM45.82,70.7h-8.33v-26.79l8.33,7.02v19.77ZM70.7,70.7h-8.33v-34.72l8.33-8.21v42.92Z"/>
  <path class="cls-1" d="M6.31,41.55c.47,0,.93-.16,1.32-.47l21.46-17.65,14.99,11.91c.83.66,2.02.59,2.76-.16l23.9-23.86,4.74,4.75c.4.4.93.61,1.47.61.27,0,.54-.05.79-.16.78-.32,1.29-1.08,1.29-1.92V2.08c0-1.15-.93-2.08-2.08-2.08h-12.49c-.84,0-1.6.51-1.92,1.28-.32.78-.15,1.67.45,2.27l4.81,4.83-22.59,22.55-14.86-11.81c-.77-.61-1.86-.6-2.62.02L4.99,37.87c-.89.73-1.02,2.04-.29,2.93.41.5,1.01.76,1.61.76ZM74.89,4.16v5.41l-5.39-5.41h5.39Z"/>
</svg>