<?xml version="1.0" encoding="UTF-8"?>
<svg id="Modo_de_isolamento" data-name="Modo de isolamento" xmlns="http://www.w3.org/2000/svg" viewBox="0 0 83.72 83.58">
  <defs>
    <style>
      .cls-1 {
        fill: #003641;
      }
    </style>
  </defs>
  <path class="cls-1" d="M78.36,70.72c-3,0-5.36-2.87-5.36-6.54,0-1.45.41-5.5.99-8.99.92-5.54,1.89-8.54,4.37-8.54s3.45,3,4.37,8.54c.58,3.49.99,7.54.99,8.99,0,3.67-2.35,6.54-5.36,6.54ZM78.36,54.44c-.14.72-.28,1.55-.43,2.52-.49,3.22-.76,6.31-.76,7.22,0,1.47.77,2.37,1.19,2.37s1.19-.9,1.19-2.37c0-.91-.27-4-.76-7.22-.15-.97-.29-1.81-.43-2.52Z"/>
  <rect class="cls-1" x="76.28" y="68.64" width="4.17" height="12.9"/>
  <path class="cls-1" d="M43.68,83.58H2.09c-1.15,0-2.09-.93-2.09-2.09V2.09C0,.93.93,0,2.09,0h41.6c1.15,0,2.09.93,2.09,2.09v79.41c0,1.15-.93,2.09-2.09,2.09ZM4.17,79.41h37.43V4.17H4.17v75.24Z"/>
  <path class="cls-1" d="M18.71,25.18h-8.34c-1.15,0-2.09-.93-2.09-2.09v-12.52c0-1.15.93-2.09,2.09-2.09h8.34c1.15,0,2.09.93,2.09,2.09v12.52c0,1.15-.93,2.09-2.09,2.09ZM12.46,21.01h4.17v-8.34h-4.17v8.34Z"/>
  <path class="cls-1" d="M35.4,25.18h-8.34c-1.15,0-2.09-.93-2.09-2.09v-12.52c0-1.15.93-2.09,2.09-2.09h8.34c1.15,0,2.09.93,2.09,2.09v12.52c0,1.15-.93,2.09-2.09,2.09ZM29.14,21.01h4.17v-8.34h-4.17v8.34Z"/>
  <path class="cls-1" d="M18.71,46.04h-8.34c-1.15,0-2.09-.93-2.09-2.09v-12.52c0-1.15.93-2.09,2.09-2.09h8.34c1.15,0,2.09.93,2.09,2.09v12.52c0,1.15-.93,2.09-2.09,2.09ZM12.46,41.86h4.17v-8.34h-4.17v8.34Z"/>
  <path class="cls-1" d="M35.4,46.04h-8.34c-1.15,0-2.09-.93-2.09-2.09v-12.52c0-1.15.93-2.09,2.09-2.09h8.34c1.15,0,2.09.93,2.09,2.09v12.52c0,1.15-.93,2.09-2.09,2.09ZM29.14,41.86h4.17v-8.34h-4.17v8.34Z"/>
  <path class="cls-1" d="M18.71,66.89h-8.34c-1.15,0-2.09-.93-2.09-2.09v-12.52c0-1.15.93-2.09,2.09-2.09h8.34c1.15,0,2.09.93,2.09,2.09v12.52c0,1.15-.93,2.09-2.09,2.09ZM12.46,62.72h4.17v-8.34h-4.17v8.34Z"/>
  <path class="cls-1" d="M35.4,66.89h-8.34c-1.15,0-2.09-.93-2.09-2.09v-12.52c0-1.15.93-2.09,2.09-2.09h8.34c1.15,0,2.09.93,2.09,2.09v12.52c0,1.15-.93,2.09-2.09,2.09ZM29.14,62.72h4.17v-8.34h-4.17v8.34Z"/>
  <path class="cls-1" d="M68.83,83.58h-25.15c-1.15,0-2.09-.93-2.09-2.09V14.75c0-.72.37-1.39.99-1.77.61-.38,1.38-.42,2.03-.09l25.15,12.52c.71.35,1.16,1.08,1.16,1.87v54.23c0,1.15-.93,2.09-2.09,2.09ZM45.77,79.41h20.98V28.55l-20.98-10.44v61.3Z"/>
  <rect class="cls-1" x="64.72" y="79.41" width="18.72" height="4.17"/>
  <path class="cls-1" d="M60.09,66.89h-7.94c-1.15,0-2.09-.93-2.09-2.09V31.43c0-1.15.93-2.09,2.09-2.09h7.94c1.15,0,2.09.93,2.09,2.09v33.37c0,1.15-.93,2.09-2.09,2.09ZM54.23,62.72h3.77v-29.2h-3.77v29.2Z"/>
</svg>