<?xml version="1.0" encoding="UTF-8"?>
<svg id="Modo_de_isolamento" data-name="Modo de isolamento" xmlns="http://www.w3.org/2000/svg" viewBox="0 0 83.22 68.55">
  <defs>
    <style>
      .cls-1 {
        fill: #003641;
      }
    </style>
  </defs>
  <path class="cls-1" d="M68.66,68.55c-.14,0-.29-.01-.43-.04-6.85-1.44-10.01-5.35-11.47-8.44-4.82,1.41-9.91,2.12-15.15,2.12-11,0-21.36-3.16-29.18-8.9C4.41,47.41,0,39.53,0,31.1S4.41,14.78,12.43,8.9C20.25,3.16,30.61,0,41.61,0s21.36,3.16,29.18,8.9c8.01,5.88,12.43,13.76,12.43,22.19s-4.53,16.41-12.48,22.23v13.15c0,.63-.28,1.22-.77,1.62-.37.3-.84.46-1.31.46ZM57.99,55.43c.33,0,.66.08.95.23.5.26.87.7,1.04,1.24.71,2.32,2.44,5.21,6.6,6.81v-11.45c0-.68.34-1.33.9-1.71,7.47-5.15,11.58-12.05,11.58-19.44,0-14.85-16.8-26.93-37.45-26.93S4.16,16.24,4.16,31.1s16.8,26.93,37.45,26.93c5.49,0,10.78-.84,15.72-2.49.21-.07.44-.11.66-.11Z"/>
</svg>