<?xml version="1.0" encoding="UTF-8"?>
<svg id="Modo_de_isolamento" data-name="Modo de isolamento" xmlns="http://www.w3.org/2000/svg" viewBox="0 0 74.84 83.25">
  <defs>
    <style>
      .cls-1 {
        fill: #00ae9d;
      }
    </style>
  </defs>
  <path class="cls-1" d="M68.79,25.03h-9.15c4.02-1.46,6.9-5.31,6.9-9.83,0-5.76-4.69-10.45-10.45-10.45-3.52,0-6.64,1.75-8.53,4.42-.57-5.15-4.94-9.17-10.24-9.17s-9.56,3.92-10.22,8.98c-1.91-2.57-4.96-4.23-8.4-4.23-5.76,0-10.45,4.69-10.45,10.45,0,4.52,2.88,8.37,6.9,9.83H6.04c-3.33,0-6.04,2.71-6.04,6.04v23.09c0,1.15.93,2.08,2.08,2.08h6.25v20.8c0,1.15.93,2.08,2.08,2.08h14.37v2.04c0,1.15.93,2.09,2.09,2.09h20.88c1.15,0,2.09-.93,2.09-2.09v-2.04h14.58c1.15,0,2.08-.93,2.08-2.08v-20.8h6.25c1.15,0,2.08-.93,2.08-2.08v-23.09c0-3.33-2.71-6.04-6.04-6.04ZM56.09,8.91c3.47,0,6.29,2.82,6.29,6.29s-2.82,6.29-6.29,6.29-6.29-2.82-6.29-6.29,2.82-6.29,6.29-6.29ZM37.31,4.18c3.38,0,6.13,2.75,6.13,6.13s-2.75,6.13-6.13,6.13-6.13-2.75-6.13-6.13,2.75-6.13,6.13-6.13ZM37.31,20.61c3.45,0,6.51-1.7,8.38-4.31.16,1.57.67,3.03,1.45,4.31h-19.5c.75-1.23,1.25-2.63,1.43-4.12,1.88,2.5,4.87,4.12,8.24,4.12ZM12.41,15.2c0-3.47,2.82-6.29,6.29-6.29s6.29,2.82,6.29,6.29-2.82,6.29-6.29,6.29-6.29-2.82-6.29-6.29ZM20.73,74.96v-14.62c0-1.15-.93-2.08-2.08-2.08s-2.08.93-2.08,2.08v14.62h-4.08v-20.8s0-.02,0-.03v-16.54c0-1.15-.93-2.08-2.08-2.08s-2.08.93-2.08,2.08v14.49h-4.17v-21.01c0-1.04.84-1.88,1.88-1.88h10.39v22.74c0,1.15.93,2.09,2.09,2.09h6.26v20.94h-4.05ZM45.66,34.51v44.56h-6.26v-27.14c0-1.15-.93-2.09-2.09-2.09s-2.09.93-2.09,2.09v27.14h-6.26v-44.56c0-1.15-.93-2.09-2.09-2.09s-2.09.94-2.09,2.09v15.33h-4.18v-21.06c0-2.2,1.79-4,4-4h25.42c2.2,0,4,1.79,4,4v21.06h-4.18v-15.33c0-1.15-.94-2.09-2.09-2.09s-2.09.94-2.09,2.09ZM70.67,52.08h-4.17v-14.49c0-1.15-.93-2.08-2.08-2.08s-2.08.93-2.08,2.08v16.54s0,.02,0,.03v20.8h-4.17v-14.64c0-1.15-.93-2.08-2.08-2.08s-2.08.93-2.08,2.08v14.64h-4.17v-20.94h6.26c1.15,0,2.09-.93,2.09-2.09v-22.74h10.6c1.04,0,1.88.84,1.88,1.88v21.01Z"/>
</svg>
