<?xml version="1.0" encoding="UTF-8"?>
<svg id="Modo_de_isolamento" data-name="Modo de isolamento" xmlns="http://www.w3.org/2000/svg" viewBox="0 0 83.51 83.44">
  <defs>
    <style>
      .cls-1 {
        fill: #003641;
      }
    </style>
  </defs>
  <path class="cls-1" d="M81.42,83.44H18.87c-1.15,0-2.09-.93-2.09-2.09V10.39c0-1.15.93-2.09,2.09-2.09h62.56c1.15,0,2.09.93,2.09,2.09v70.96c0,1.15-.93,2.09-2.09,2.09ZM20.95,79.26h58.39V12.48H20.95v66.79Z"/>
  <path class="cls-1" d="M7.26,68.63c-3.97,0-7.2-3.23-7.2-7.2,0-1.68.64-6.36,1.55-10.38,1.52-6.69,3.16-9.43,5.65-9.43s4.13,2.73,5.65,9.43c.91,4.02,1.55,8.7,1.55,10.38,0,3.97-3.23,7.2-7.2,7.2ZM7.26,46.73c-.49,1.12-1.14,3.1-1.82,6.32-.78,3.73-1.21,7.33-1.21,8.38,0,1.67,1.36,3.03,3.03,3.03s3.03-1.36,3.03-3.03c0-1.06-.43-4.65-1.21-8.38-.67-3.22-1.33-5.21-1.82-6.32Z"/>
  <rect class="cls-1" x="5.17" y="66.55" width="4.17" height="14.8"/>
  <rect class="cls-1" y="79.26" width="81.39" height="4.17"/>
  <path class="cls-1" d="M71.01,12.48H29.29c-1.15,0-2.09-.93-2.09-2.09V2.09c0-1.15.93-2.09,2.09-2.09h41.72c1.15,0,2.09.93,2.09,2.09v8.31c0,1.15-.93,2.09-2.09,2.09ZM31.37,8.31h37.55v-4.13H31.37v4.13Z"/>
  <path class="cls-1" d="M35.66,33.52h-8.48c-1.15,0-2.09-.93-2.09-2.09v-8.48c0-1.15.93-2.09,2.09-2.09h8.48c1.15,0,2.09.93,2.09,2.09v8.48c0,1.15-.93,2.09-2.09,2.09ZM29.26,29.34h4.31v-4.31h-4.31v4.31Z"/>
  <path class="cls-1" d="M54.23,33.52h-8.48c-1.15,0-2.09-.93-2.09-2.09v-8.48c0-1.15.93-2.09,2.09-2.09h8.48c1.15,0,2.09.93,2.09,2.09v8.48c0,1.15-.93,2.09-2.09,2.09ZM47.83,29.34h4.31v-4.31h-4.31v4.31Z"/>
  <path class="cls-1" d="M72.99,33.52h-8.48c-1.15,0-2.09-.93-2.09-2.09v-8.48c0-1.15.93-2.09,2.09-2.09h8.48c1.15,0,2.09.93,2.09,2.09v8.48c0,1.15-.93,2.09-2.09,2.09ZM66.59,29.34h4.31v-4.31h-4.31v4.31Z"/>
  <path class="cls-1" d="M35.66,50.04h-8.48c-1.15,0-2.09-.93-2.09-2.09v-8.48c0-1.15.93-2.09,2.09-2.09h8.48c1.15,0,2.09.93,2.09,2.09v8.48c0,1.15-.93,2.09-2.09,2.09ZM29.26,45.87h4.31v-4.31h-4.31v4.31Z"/>
  <path class="cls-1" d="M54.23,50.04h-8.48c-1.15,0-2.09-.93-2.09-2.09v-8.48c0-1.15.93-2.09,2.09-2.09h8.48c1.15,0,2.09.93,2.09,2.09v8.48c0,1.15-.93,2.09-2.09,2.09ZM47.83,45.87h4.31v-4.31h-4.31v4.31Z"/>
  <path class="cls-1" d="M54.23,83.44h-8.48c-1.15,0-2.09-.93-2.09-2.09v-25.03c0-1.15.93-2.09,2.09-2.09h8.48c1.15,0,2.09.93,2.09,2.09v25.03c0,1.15-.93,2.09-2.09,2.09ZM47.83,79.26h4.31v-20.86h-4.31v20.86Z"/>
  <path class="cls-1" d="M72.99,50.04h-8.48c-1.15,0-2.09-.93-2.09-2.09v-8.48c0-1.15.93-2.09,2.09-2.09h8.48c1.15,0,2.09.93,2.09,2.09v8.48c0,1.15-.93,2.09-2.09,2.09ZM66.59,45.87h4.31v-4.31h-4.31v4.31Z"/>
  <path class="cls-1" d="M35.66,66.82h-8.48c-1.15,0-2.09-.93-2.09-2.09v-8.48c0-1.15.93-2.09,2.09-2.09h8.48c1.15,0,2.09.93,2.09,2.09v8.48c0,1.15-.93,2.09-2.09,2.09ZM29.26,62.65h4.31v-4.31h-4.31v4.31Z"/>
  <path class="cls-1" d="M72.99,66.82h-8.48c-1.15,0-2.09-.93-2.09-2.09v-8.48c0-1.15.93-2.09,2.09-2.09h8.48c1.15,0,2.09.93,2.09,2.09v8.48c0,1.15-.93,2.09-2.09,2.09ZM66.59,62.65h4.31v-4.31h-4.31v4.31Z"/>
  <path class="cls-1" d="M56.38,58.33h-12.52c-1.15,0-2.09-.93-2.09-2.09s.93-2.09,2.09-2.09h12.52c1.15,0,2.09.93,2.09,2.09s-.93,2.09-2.09,2.09Z"/>
</svg>