<?xml version="1.0" encoding="UTF-8"?>
<svg id="Layer_1" data-name="Layer 1" xmlns="http://www.w3.org/2000/svg" viewBox="0 0 96.67 11.88">
  <defs>
    <style>
      .cls-1, .cls-2 {
        fill: #fff;
      }

      .cls-2 {
        fill-rule: evenodd;
      }
    </style>
  </defs>
  <g>
    <g>
      <path class="cls-1" d="M67.11,11.2c-.09.04-.29.09-.55.09-.68,0-1.09-.42-1.09-1.06,0-.69.49-1.11,1.14-1.11.26,0,.44.05.51.09l-.08.31c-.1-.04-.24-.08-.42-.08-.43,0-.75.27-.75.77,0,.46.27.76.74.76.15,0,.32-.03.42-.08l.06.3Z"/>
      <path class="cls-1" d="M68.83,10.49c0,.56-.4.81-.79.81-.43,0-.77-.29-.77-.78s.33-.8.8-.8.76.32.76.78ZM67.67,10.51c0,.29.15.51.38.51.22,0,.38-.21.38-.52,0-.24-.11-.51-.37-.51s-.39.26-.39.52Z"/>
      <path class="cls-1" d="M70.61,10.49c0,.56-.4.81-.79.81-.43,0-.77-.29-.77-.78s.33-.8.8-.8.76.32.76.78ZM69.45,10.51c0,.29.15.51.38.51.22,0,.38-.21.38-.52,0-.24-.11-.51-.37-.51s-.39.26-.39.52Z"/>
      <path class="cls-1" d="M70.93,10.25c0-.2,0-.36-.01-.5h.34l.02.23h0c.11-.17.29-.27.53-.27.35,0,.65.3.65.77,0,.55-.35.81-.7.81-.19,0-.35-.08-.43-.2h0v.78h-.39v-1.63ZM71.32,10.63s0,.07,0,.11c.04.16.18.27.34.27.25,0,.39-.2.39-.5,0-.27-.13-.49-.38-.49-.16,0-.31.12-.35.28,0,.03-.01.07-.01.1v.23Z"/>
      <path class="cls-1" d="M73.05,10.61c0,.27.22.39.47.39.18,0,.31-.03.43-.07l.06.26c-.13.06-.32.1-.54.1-.5,0-.79-.3-.79-.77,0-.42.26-.82.75-.82s.66.4.66.74c0,.07,0,.13-.01.16h-1.03ZM73.72,10.34c0-.14-.06-.37-.32-.37-.24,0-.34.21-.36.37h.68Z"/>
      <path class="cls-1" d="M74.4,10.24c0-.21,0-.35-.01-.49h.33l.02.29h0c.08-.21.26-.32.42-.32.04,0,.06,0,.09,0v.36s-.07,0-.12,0c-.18,0-.31.12-.35.29,0,.03,0,.07,0,.12v.79h-.39v-1.03Z"/>
      <path class="cls-1" d="M76.68,10.9c0,.14,0,.27.03.36h-.35l-.03-.17h0c-.09.12-.25.2-.45.2-.31,0-.48-.22-.48-.45,0-.38.34-.58.91-.57v-.02c0-.1-.04-.26-.31-.26-.15,0-.31.05-.41.11l-.08-.25c.11-.07.31-.13.56-.13.49,0,.63.31.63.64v.54ZM76.31,10.52c-.27,0-.54.05-.54.28,0,.15.1.22.22.22.16,0,.27-.1.31-.21,0-.03,0-.06,0-.08v-.21Z"/>
      <path class="cls-1" d="M77.52,9.36v.39h.37v.29h-.37v.67c0,.19.05.28.2.28.07,0,.11,0,.15-.02v.29c-.05.02-.15.04-.27.04-.14,0-.26-.05-.33-.12-.09-.09-.12-.23-.12-.43v-.71h-.22v-.29h.22v-.28l.38-.11Z"/>
      <path class="cls-1" d="M78.59,9.32c0,.11-.08.21-.22.21s-.21-.09-.21-.21c0-.12.09-.21.22-.21s.21.09.22.21ZM78.18,11.26v-1.52h.39v1.52h-.39Z"/>
      <path class="cls-1" d="M79.23,9.75l.25.77c.04.13.08.25.1.38h0c.03-.12.06-.24.1-.38l.25-.77h.41l-.59,1.52h-.38l-.57-1.52h.42Z"/>
      <path class="cls-1" d="M81.76,10.9c0,.14,0,.27.03.36h-.35l-.03-.17h0c-.09.12-.25.2-.45.2-.31,0-.48-.22-.48-.45,0-.38.34-.58.91-.57v-.02c0-.1-.04-.26-.31-.26-.15,0-.31.05-.41.11l-.08-.25c.11-.07.31-.13.56-.13.49,0,.63.31.63.64v.54ZM81.38,10.52c-.27,0-.54.05-.54.28,0,.15.1.22.22.22.16,0,.27-.1.31-.21,0-.03,0-.06,0-.08v-.21Z"/>
      <path class="cls-1" d="M84.23,9.05v1.78c0,.16,0,.32.01.43h-.34l-.02-.24h0c-.09.17-.28.27-.5.27-.37,0-.66-.31-.66-.78,0-.51.32-.81.69-.81.21,0,.36.08.43.2h0v-.86h.39ZM83.84,10.38s0-.07,0-.1c-.03-.15-.16-.27-.33-.27-.25,0-.39.22-.39.5s.14.48.39.48c.16,0,.3-.11.33-.27,0-.03.01-.07.01-.11v-.23Z"/>
      <path class="cls-1" d="M84.92,10.61c0,.27.22.39.47.39.18,0,.31-.03.43-.07l.06.26c-.13.06-.32.1-.54.1-.5,0-.79-.3-.79-.77,0-.42.26-.82.75-.82s.66.4.66.74c0,.07,0,.13-.01.16h-1.03ZM85.6,10.34c0-.14-.06-.37-.32-.37-.24,0-.34.21-.36.37h.68Z"/>
      <path class="cls-1" d="M88.46,11.2c-.09.04-.29.09-.55.09-.68,0-1.09-.42-1.09-1.06,0-.69.49-1.11,1.14-1.11.26,0,.44.05.51.09l-.08.31c-.1-.04-.24-.08-.42-.08-.43,0-.75.27-.75.77,0,.46.27.76.74.76.15,0,.32-.03.42-.08l.06.3Z"/>
      <path class="cls-1" d="M88.77,10.24c0-.21,0-.35-.01-.49h.33l.02.29h0c.08-.21.26-.32.42-.32.04,0,.06,0,.09,0v.36s-.07,0-.12,0c-.18,0-.31.12-.35.29,0,.03,0,.07,0,.12v.79h-.39v-1.03Z"/>
      <path class="cls-1" d="M90.13,10.61c0,.27.22.39.47.39.18,0,.31-.03.43-.07l.06.26c-.13.06-.32.1-.54.1-.5,0-.79-.3-.79-.77,0-.42.26-.82.75-.82s.66.4.66.74c0,.07,0,.13-.01.16h-1.03ZM90.81,10.34c0-.14-.06-.37-.32-.37-.24,0-.34.21-.36.37h.68ZM90.98,9.09l-.39.46h-.27l.27-.46h.38Z"/>
      <path class="cls-1" d="M92.9,9.05v1.78c0,.16,0,.32.01.43h-.34l-.02-.24h0c-.09.17-.28.27-.5.27-.37,0-.66-.31-.66-.78,0-.51.32-.81.69-.81.21,0,.36.08.43.2h0v-.86h.39ZM92.52,10.38s0-.07,0-.1c-.03-.15-.16-.27-.33-.27-.25,0-.39.22-.39.5s.14.48.39.48c.16,0,.3-.11.33-.27,0-.03.01-.07.01-.11v-.23Z"/>
      <path class="cls-1" d="M93.73,9.32c0,.11-.08.21-.22.21s-.21-.09-.21-.21c0-.12.09-.21.22-.21s.21.09.22.21ZM93.32,11.26v-1.52h.39v1.52h-.39Z"/>
      <path class="cls-1" d="M94.57,9.36v.39h.37v.29h-.37v.67c0,.19.05.28.2.28.07,0,.11,0,.15-.02v.29c-.05.02-.15.04-.27.04-.14,0-.26-.05-.33-.12-.09-.09-.12-.23-.12-.43v-.71h-.22v-.29h.22v-.28l.38-.11Z"/>
      <path class="cls-1" d="M96.67,10.49c0,.56-.4.81-.79.81-.43,0-.77-.29-.77-.78s.33-.8.8-.8.76.32.76.78ZM95.51,10.51c0,.29.15.51.38.51.22,0,.38-.21.38-.52,0-.24-.11-.51-.37-.51s-.39.26-.39.52Z"/>
    </g>
    <g>
      <path class="cls-1" d="M47.96,7.66c-.13.06-.33.12-.62.18-.29.06-.62.09-1,.09-.55,0-1.03-.08-1.45-.24-.42-.16-.77-.38-1.04-.66-.28-.28-.49-.61-.63-.99-.14-.38-.21-.8-.21-1.24,0-.53.09-1,.27-1.42.18-.41.43-.76.74-1.04.31-.28.68-.5,1.1-.64.42-.15.87-.22,1.36-.22.09,0,.19,0,.31.01.12,0,.23.03.35.06.12.03.23.08.33.14.1.06.19.14.25.25.07.1.1.23.11.38,0,.16-.02.34-.1.55-.14-.06-.32-.12-.51-.16-.2-.05-.43-.07-.69-.07-.28,0-.55.04-.79.13-.25.09-.46.21-.64.38-.18.17-.33.39-.43.65-.1.26-.16.56-.16.91,0,.63.18,1.13.53,1.5s.85.55,1.49.55c.22,0,.44-.02.66-.06.22-.04.4-.09.55-.15l.21,1.11Z"/>
      <path class="cls-1" d="M48.69,1.65c.23-.04.51-.07.84-.09.33-.03.68-.04,1.07-.04.47,0,.87.04,1.21.11.34.07.62.2.84.38.4.3.59.74.59,1.32,0,.2-.03.38-.1.55-.07.17-.15.32-.26.45-.11.13-.23.24-.36.33-.13.09-.27.16-.41.21v.03c.22.09.4.23.55.43.14.2.26.44.34.73.05.18.09.36.13.54.03.18.07.36.1.52.03.16.06.31.08.43.02.12.05.22.08.28h-1.47c-.05-.09-.09-.26-.13-.51-.04-.25-.1-.56-.19-.95-.04-.2-.1-.36-.16-.49-.06-.13-.14-.23-.23-.31-.09-.08-.19-.13-.3-.16-.11-.03-.24-.05-.39-.05h-.42v2.46h-1.43V1.65ZM50.12,4.34h.56c.36,0,.63-.08.83-.24.2-.16.3-.38.3-.66s-.09-.5-.28-.65c-.18-.15-.44-.22-.77-.22-.17,0-.31,0-.42.01-.1,0-.18.02-.23.03v1.72Z"/>
      <path class="cls-1" d="M57.96,5.18h-2.34v1.49h2.61v1.16h-4.04V1.57h2.89c.32,0,.57.09.75.27.18.18.27.48.27.89h-2.48v1.3h2.34v1.15Z"/>
      <path class="cls-1" d="M59.12,1.66c.26-.04.56-.08.9-.1.33-.03.68-.04,1.04-.04.61,0,1.12.06,1.54.17.41.11.77.28,1.07.5.33.24.6.56.79.94.19.39.29.86.29,1.42,0,.6-.1,1.11-.3,1.52-.2.42-.45.75-.75,1.01-.34.28-.76.48-1.25.61-.5.13-1.06.2-1.69.2-.38,0-.7,0-.97-.03-.27-.02-.49-.04-.66-.07V1.66ZM60.55,6.76c.06.01.14.02.23.02.09,0,.18,0,.27,0,.33,0,.63-.04.9-.13s.5-.22.69-.4c.19-.18.34-.41.44-.69.1-.28.16-.6.16-.97,0-.65-.18-1.14-.55-1.48-.37-.34-.86-.51-1.48-.51-.16,0-.29,0-.4.02-.11.01-.19.03-.25.04v4.1Z"/>
      <path class="cls-1" d="M65.55,1.57c.27,0,.5.01.68.03.18.02.33.07.44.14.11.07.19.17.24.3.05.13.07.3.07.51v5.27h-1.43V1.57Z"/>
      <path class="cls-1" d="M72.75,7.66c-.13.06-.33.12-.62.18-.29.06-.62.09-1,.09-.55,0-1.03-.08-1.45-.24-.42-.16-.77-.38-1.04-.66-.28-.28-.49-.61-.63-.99-.14-.38-.21-.8-.21-1.24,0-.53.09-1,.27-1.42.18-.41.43-.76.74-1.04.31-.28.68-.5,1.1-.64.42-.15.87-.22,1.36-.22.09,0,.19,0,.31.01.12,0,.23.03.35.06.12.03.23.08.33.14.1.06.19.14.25.25.07.1.1.23.11.38,0,.16-.02.34-.1.55-.14-.06-.32-.12-.51-.16-.2-.05-.43-.07-.69-.07-.28,0-.55.04-.79.13-.25.09-.46.21-.64.38-.18.17-.33.39-.43.65-.1.26-.16.56-.16.91,0,.63.18,1.13.53,1.5.35.37.85.55,1.49.55.22,0,.44-.02.66-.06.22-.04.4-.09.55-.15l.21,1.11Z"/>
      <path class="cls-1" d="M73.49,1.57c.27,0,.5.01.68.03.18.02.33.07.44.14.11.07.19.17.24.3.05.13.07.3.07.51v5.27h-1.43V1.57Z"/>
      <path class="cls-1" d="M77.21,2.76h-1.72v-1.19h4.88v1.19h-1.73v5.07h-1.43V2.76Z"/>
      <path class="cls-1" d="M80.95,1.65c.23-.04.51-.07.84-.09.33-.03.68-.04,1.07-.04.47,0,.88.04,1.21.11.34.07.62.2.84.38.4.3.59.74.59,1.32,0,.2-.03.38-.1.55-.07.17-.15.32-.26.45-.11.13-.23.24-.36.33s-.27.16-.41.21v.03c.22.09.4.23.55.43.14.2.26.44.34.73.05.18.09.36.13.54.03.18.07.36.1.52.03.16.06.31.08.43.02.12.05.22.08.28h-1.47c-.05-.09-.09-.26-.13-.51-.04-.25-.1-.56-.19-.95-.04-.2-.1-.36-.16-.49-.06-.13-.14-.23-.23-.31-.09-.08-.19-.13-.3-.16-.11-.03-.24-.05-.39-.05h-.42v2.46h-1.43V1.65ZM82.38,4.34h.56c.36,0,.63-.08.83-.24.2-.16.3-.38.3-.66s-.09-.5-.28-.65c-.18-.15-.44-.22-.77-.22-.17,0-.31,0-.42.01-.1,0-.18.02-.23.03v1.72Z"/>
      <path class="cls-1" d="M87.8,1.57v3.59c0,.54.1.95.3,1.23.2.27.48.41.85.41s.67-.13.87-.4c.2-.26.3-.68.3-1.24V1.57c.27,0,.5.01.68.03.18.02.33.07.44.14.11.07.19.17.24.3.05.13.07.3.07.51v2.53c0,.97-.23,1.68-.7,2.15-.47.47-1.12.7-1.95.7-.4,0-.76-.06-1.07-.17-.31-.11-.58-.28-.8-.52-.22-.24-.38-.53-.49-.9-.11-.36-.17-.79-.17-1.29V1.57h1.43Z"/>
      <path class="cls-1" d="M92.61,6.37c.19.1.42.19.71.27.28.08.58.12.89.12.33,0,.58-.06.75-.19.17-.12.25-.29.25-.49s-.08-.36-.25-.49c-.16-.13-.44-.25-.82-.38-.53-.19-.95-.43-1.27-.72-.32-.3-.48-.67-.48-1.13,0-.27.05-.51.16-.74.11-.23.27-.43.48-.59.21-.17.46-.3.76-.39.3-.1.63-.14,1-.14.24,0,.47.02.68.07.22.04.39.12.53.23.13.11.22.25.25.44.03.19-.02.42-.16.71-.13-.06-.3-.13-.52-.19-.22-.07-.49-.1-.8-.1s-.55.06-.7.18c-.15.12-.23.26-.23.42,0,.1.02.19.07.26.04.08.11.15.21.21.1.07.22.13.37.2.15.06.33.13.53.21.57.2.98.46,1.24.75.26.3.4.67.4,1.11,0,.26-.05.51-.16.74-.1.24-.26.44-.47.62-.21.18-.48.32-.8.42-.32.11-.7.16-1.13.16-.36,0-.71-.04-1.04-.12-.33-.08-.58-.17-.76-.27l.29-1.16Z"/>
    </g>
    <path class="cls-2" d="M26.98,1.48h-.04c-1.9.02-3.07,1.46-3.07,3.26s1.07,3.19,3,3.19h.07c1.89-.03,3.07-1.3,3.07-3.29,0-1.67-1.02-3.16-3.03-3.16ZM26.96,6.61h-.02c-.81,0-1.31-.78-1.3-1.9,0-1.08.49-1.9,1.3-1.9h0c.82,0,1.3.82,1.3,1.89,0,1.13-.47,1.91-1.28,1.91ZM33.66,1.48h-.04c-1.9.02-3.07,1.46-3.07,3.26s1.07,3.19,3,3.19h.06c1.89-.03,3.07-1.3,3.07-3.29,0-1.67-1.02-3.16-3.03-3.16ZM33.64,6.61h-.02c-.81,0-1.31-.78-1.3-1.9,0-1.08.49-1.9,1.3-1.9s1.3.82,1.3,1.89c0,1.13-.47,1.91-1.28,1.91ZM40.9,4.45v-.02c.73-.28,1.02-.79,1.02-1.31,0-.61-.35-1.06-.84-1.29-.41-.21-.86-.28-1.53-.3-.12,0-.25,0-.38,0-.77,0-1.59.06-1.97.14v6.12c.33.07.89.11,1.65.11.25,0,.49,0,.7-.02.92-.06,1.5-.25,1.87-.53.42-.32.71-.78.71-1.37,0-.74-.46-1.31-1.22-1.52ZM38.85,2.78c.11-.02.27-.04.55-.04.05,0,.1,0,.15,0,.47.04.7.26.7.59s-.23.55-.7.62c-.11.02-.23.03-.36.03h-.34v-1.21ZM39.55,6.67c-.07,0-.14.01-.21.01-.21,0-.36,0-.48-.02v-1.49h.4c.1,0,.2,0,.3.02.48.06.82.27.82.72,0,.48-.36.72-.82.77ZM16.22,1.58v6.25h1.68V2.6c0-.78-.42-1.02-1.68-1.02ZM13.78,4.05c-.79-.3-1.12-.42-1.12-.73,0-.28.28-.46.79-.46.62,0,1.24.23,1.35.3.24-.64.37-1.66-1.33-1.66-1.57,0-2.51.85-2.51,1.96,0,.93.71,1.5,1.76,1.88.7.24.98.41.98.72s-.28.51-.85.51c-.63,0-1.24-.19-1.62-.39l-.32,1.38c.35.19,1.08.38,1.83.38,1.83,0,2.66-.92,2.66-1.99,0-.87-.5-1.46-1.62-1.88ZM22.28,6.53c-1.15,0-1.83-.71-1.83-1.84,0-1.27.83-1.84,1.79-1.84.5,0,1.02.15,1.16.22.3-.67.22-1.59-1.23-1.59-1.86,0-3.48,1.12-3.48,3.32,0,1.66,1.03,3.12,3.37,3.12.74,0,1.33-.14,1.57-.26l-.23-1.31c-.26.1-.71.18-1.11.18Z"/>
  </g>
  <g>
    <path class="cls-2" d="M10.14,0h-5.28l2.43,4.2h1.4l1.95-3.37c.04-.07.06-.16.06-.25,0-.31-.24-.56-.55-.58"/>
    <path class="cls-2" d="M4.42,0H.53c-.08,0-.17.03-.25.08-.18.11-.29.3-.29.5,0,.09.02.17.06.26l2.64,4.58L5.13,1.22l-.71-1.22Z"/>
    <path class="cls-2" d="M2.92,5.79l1.94,3.37c.05.07.1.13.19.17.09.05.19.08.29.08.19,0,.37-.1.48-.26l2.64-4.58H3.63l-.7,1.22Z"/>
  </g>
</svg>