<?xml version="1.0" encoding="UTF-8"?>
<svg id="Camada_1" xmlns="http://www.w3.org/2000/svg" version="1.1" viewBox="0 0 576.42 507">
  <!-- Generator: Adobe Illustrator 30.0.0, SVG Export Plug-In . SVG Version: 2.1.1 Build 123)  -->
  <defs>
    <style>
      .st0 {
        fill: #359e91;
      }

      .st0, .st1 {
        fill-rule: evenodd;
      }

      .st1 {
        fill: #013742;
      }
    </style>
  </defs>
  <path class="st1" d="M163.85,273.68c1.56,1.26,2.91,3.96,5.41,5.21,6.45,3.23,7.06-3.46,10.37-5.82,9.56-6.82,19.55-.36,29.02-3.11,2.59-.75,5.04-2.3,7.78-3.11,6.9-2.05,10.87-1.37,17.54-1.47,2.87-.04,7.61-2.57,9.45.91,1.42,2.7.11,4.18.11,6.43,0,4.64,5.64,8.79,5.99,11.48.34,2.64-2.66,6.57-3.12,9.89-.95,6.93,1.96,7.06,3.42,12.1,1.82,6.3-.03,13.63,8.83,15.14,4.78.81,10.78-1.81,14.6,1.74,4.21,3.92.73,9-.25,13.4-1.65,7.39-5.48,24.43-2.78,31.02,1.96,4.8,6.73,5.67,8.75,9.22,2.56,4.49,1.46,10.31,7.24,12.91,3.37,1.52,14.16,2.36,18,2.01,7.34-.66,6.93-3.27,11.21-7.3,3.5-3.3,4.29-1.05,7.92-.8,13.33.92,23.65-5.99,35.79-9.41,8.14-2.29,5.48.28,9.88,4.86,1.82,1.9,5.01,3.94,7.54,4.71,1.8.55,8.65,1.05,9.1,2.36,1.64,4.75-8.2,6.74-9.52,11.63-.79,2.93,1.63,3.48,1.93,5.77.85,6.42-8.17,5.25-11.58,6.89-1.33.64-2.16,2.22-3.48,3.05-6.02,3.79-13.28,4.92-19.06,8.17-4.09,2.3-11.19,10.33-14.33,11.29-2.68.82-6.13-1.43-9.01-1.44-3.23,0-8.32.89-11.11,2.54-2.02,1.19-4.7,4.66-6.18,5.26-2.67,1.08-6.23-.1-9.14.67-1.88.5-13.08,6.63-15.4,8.02-11.09,6.64-18.74,17.74-28.54,23.75-9.5,5.82-14.02,8.41-22.13,16.51-2.25,2.25-12.15,14.02-13.82,14.53-5.42,1.65-8.46-6.69-12.12-7.81-3.65-1.13-8.71,1.1-12.04-1.58-4.61-3.71.83-10.79-1.66-14.68-1.19-1.86-7.2-2.35-9.48-2.5-4.41-.3-18.91,1.09-21.67-.52-3.32-1.94-.3-10.77-.34-13.91-.13-10.45-8.1-16.53-13.36-24.27-2.27-3.35-3.34-11.39-3.57-15.49-.44-8.01,2.86-17.56-4.18-23.6-10.81-2.87-23.71-9.06-34.85-9.84-6.09-.43-7.56,3.41-14.54-.69-5.09-2.99-5.59-2.57-10.83-4.42-3.23-1.14-7.4-3.57-10.63-4.07-5.53-.86-11.29,1.18-16.62.28-3.49-.59-5.81-4.43-8.35-4.76-2.91-.38-4.02,1.59-6.31,2.35-6.27,2.08-12.76-1.9-19.19-1.21-2.32.25-4.6,1.39-7.12,1.59-1.38.11-7.51.46-7.42-1.38.17-3.47,11.12-9.57,13.96-12.23,4.37-4.1,13.57-13.37,16.81-18.05,1.93-2.79,3.04-6.13,4.78-8.84,1.43-2.23,4.62-4.92,5.57-6.96,1.51-3.25,1.82-8.07,3.67-12.12,2-4.37,6.05-8.56,7.65-12.5.82-2.03.64-4.1,1.25-5.83,2.32-6.58,7.91-14.42,13.4-18.73,4.83-3.79,9.04-4.29,13.57-9.3,4.72-5.22,10.03-9.51,16.38-13.03,10.05-5.56,10.97-2.24,20.12.49,5.29,1.58,17.38,1.15,23.66,1.4,3.47.14,8.78-.59,11.89.1,4.28.94,2.29,11.18,6.22,12.3,1.54.43,3.47-.34,4.91.82v-.02Z"/>
  <path class="st0" d="M279.42,26.1c1.01-1,3.86-.79,5.17-.26,2.84,1.16,4.34,6.47,8.16,7.1,2.31.38,4.78-2.04,7.73-.71,1.41.64,2.91,4.69,4.13,6.19,2.23,2.74,5.56,4.39,9.16,3.82,21.42-9.94,41.14-22.81,60.44-36.29,3.39-1.42,14.66-1.83,18.27-1.05,3.41.74,1.57,5.36,2.15,8.18.97,4.72,13.6,14,18.14,14.49,4.12.44,8.6-3.29,12.98-3.77,6.42-.71,11.29.87,16.74,3.91,10.07,5.62,20.18,12.86,30.25,18.66,5.76,1.31,11.92-1.32,17.39.54,3.83,1.31,19.14,12.57,20.31,16.1,1.03,3.13-.05,6.23,4.31,7.65,3.35,1.09,5.32-.09,8.25-.15,16.98-.31,30.36,7.54,46.33,11.86,10.36,5.06,7.96,12.46,1.77,19.93-1.52,1.83-3.65,3.37-5.15,5.17-8.15,9.74-12.88,21.98-19.22,32.94-2.3,9,6.21,15.47,10,22.48,5.26,9.71-2.9,8.35-9.81,10.86-7.42,2.69-13.45,5.69-19.02,11.41-4.74,4.86,2.71,8.62,3.04,14.4.31,5.37-3.89,7.87-3.88,10.34,0,1.25,2.4,4.63,3.03,6.26,2.58,6.67,1.69,20.32-1.34,26.9-1.52,3.3-4.8,5.5-6.1,8.03-1.3,2.52-1.2,6.48-2.34,9.61-.72,1.97-5.52,11.02-6.79,12.23-3.34,3.19-8.97-.74-13,2.76-4.1,3.56-1.02,16.4-3.18,22.36-1.88,5.18-10.93,8.03-12.47,13.07-1.57,5.14-1.82,11.98-3.46,17.73-7.33,25.68-24.31,22.6-46.81,26.01-5.33.81-10.61,2.4-15.99,3.03-5.68.67-11.45.36-17.08,1.4-12.97,2.4-27.21,8.29-39.77,12.4-9.84,3.22-26.37,10.2-36.01,9.62-4.66-.28-6.24-2.55-10.62,1.36-1.53,1.36-2.63,3.86-4.38,4.86-3.52,2.01-16.78,1.88-20.74.71-7.08-2.08-5.42-6.85-7.8-11.76-2.23-4.6-8.18-5.61-9.33-12.41-2.1-12.43,3.86-23.59,5.72-35.32,1.01-6.35-3.53-9.43-9.38-9.42-2.7,0-4.76.93-8.01.45-8.16-1.22-7.13-7.75-8.83-13.99-1.4-5.13-3.11-5.65-2.29-12.07.38-3.02,2.05-4.77,2.45-6.8.64-3.22-3.92-8.67-5.03-12.11-1.64-5.05,1.17-10.59-5.58-11.81-6.44-1.17-16.47.34-22.97,1.77-4.18.92-9.18,3.56-12.81,4.03-9.32,1.22-16.79-3.93-26.7,3.19-2.75,1.98-3.46,7.35-8.3,5.27-1.87-.81-5.04-5.22-6.56-5.94-1.26-.6-3.66-.27-4.58-1.4-1.15-1.41-1.19-6.35-2.24-8.62-2.36-5.11-6.7-2.82-10.79-2.75-6.81.12-15.7.58-22.3-.03-9.94-.91-14.95-7.77-26.3-2.37-2.89,1.38-13.53,9.94-15.47,9.39-2.14-.61-1.58-10.96-1.38-13.2.97-10.65,7.89-17.56,15.14-24.53,1.32-1.27,3.73-2.51,4.9-3.8,2.19-2.42,3-6.55,4.88-8.7,10.28-11.77,25.56-13.72,40.49-12.75,2.03.13,3.66,1.3,5.84.98,3.95-.58,15.48-10.39,22.45-12.37,9.57-2.71,9.55,1.67,16.9,2.09,2.85.16,5.46-.86,8.57-.45,7.22.97,11.86,6.44,20.08,3.14,3.21-1.29,18.54-14.15,20.98-17.06,1.47-1.76,2.93-4.14,2.77-6.5-.25-3.51-4.09-5.79-3.86-9.77.23-4.13,4.12-5.94,3.25-11.4-.78-4.93-8.86-3.02-8.11-8.68.65-4.88,13.08-8.93,12.95-16.36-.03-1.79-3.04-8.35-3.86-10.71-.7-2-.74-4.28-1.46-6.15-.87-2.26-3.03-4-3.59-6.73-.87-4.25,1.31-13.55,4.68-16.57,5.21-4.67,14.64-1.92,18.55-9.16,3.31-6.11-2.73-10.09-2.87-15.87-.07-2.94,1.92-6.91,2.21-10.33.27-3.17-.65-9.32.11-11.84,1.27-4.22,9.78.92,13.47-1.75,3.09-2.23,1.42-9.03,3.4-11l.02.03Z"/>
</svg>