<?xml version="1.0" encoding="UTF-8"?>
<svg id="Modo_de_isolamento" data-name="Modo de isolamento" xmlns="http://www.w3.org/2000/svg" viewBox="0 0 83.31 79.06">
  <defs>
    <style>
      .cls-1 {
        fill: #003641;
      }
    </style>
  </defs>
  <path class="cls-1" d="M75.02,38.47v-4.26c1.32.55,3.03,1.42,4.84,2.76.37.28.81.41,1.24.41.64,0,1.27-.29,1.67-.84.68-.92.49-2.23-.44-2.91-2.92-2.16-5.64-3.3-7.31-3.86V2.15c0-1.15-.93-2.08-2.08-2.08h-24.66c-.92,0-1.74.61-2,1.49l-8.08,27.45h-9.03v-10.31c0-1.15-.93-2.08-2.08-2.08h-2.08V6.98l3.51-3.41c.82-.8.84-2.12.04-2.94s-2.12-.84-2.94-.04l-4.14,4.02c-.4.39-.63.93-.63,1.49v10.52h-2.01c-1.15,0-2.08.93-2.08,2.08v10.31h-6.27c-1.15,0-2.08.93-2.08,2.08v14.59h-2.08c-1.15,0-2.08.93-2.08,2.08s.93,2.08,2.08,2.08h2.08v1.4c-4.96,2.34-8.4,7.38-8.4,13.21,0,8.05,6.55,14.6,14.6,14.6,7.34,0,13.43-5.45,14.45-12.52h10.88c3.81,7.42,11.53,12.52,20.43,12.52,12.66,0,22.95-10.3,22.95-22.95,0-7.09-3.23-13.43-8.29-17.64ZM20.92,20.78h1.4c.19.06.4.09.61.09s.42-.03.61-.09h1.47v8.23h-4.09v-8.23ZM14.6,74.9c-5.75,0-10.44-4.68-10.44-10.44s4.68-10.44,10.44-10.44,10.44,4.68,10.44,10.44-4.68,10.44-10.44,10.44ZM29.05,62.39c-1.01-7.07-7.1-12.52-14.45-12.52-.69,0-1.37.05-2.04.15v-16.84h27.2c.92,0,1.74-.61,2-1.49l8.08-27.45h21.02v26.87c-.02.16-.02.31,0,.46v4.14c-3.15-1.63-6.72-2.55-10.5-2.55-12.66,0-22.95,10.3-22.95,22.95,0,2.17.31,4.28.88,6.27h-9.24ZM60.36,74.9c-10.36,0-18.79-8.43-18.79-18.79s8.43-18.79,18.79-18.79,18.79,8.43,18.79,18.79-8.43,18.79-18.79,18.79Z"/>
  <path class="cls-1" d="M49.64,29.05h14.93c1.15,0,2.08-.93,2.08-2.08V10.28c0-1.15-.93-2.08-2.08-2.08h-10.45c-.94,0-1.77.63-2.01,1.54l-4.47,16.69c-.17.62-.03,1.29.36,1.81.39.51,1,.81,1.65.81ZM55.71,12.36h6.77v12.53h-10.13l3.36-12.53Z"/>
  <path class="cls-1" d="M18.82,35.27c-1.15,0-2.08.93-2.08,2.08v6.17c0,1.15.93,2.08,2.08,2.08s2.08-.93,2.08-2.08v-6.17c0-1.15-.93-2.08-2.08-2.08Z"/>
  <path class="cls-1" d="M25.04,35.27c-1.15,0-2.08.93-2.08,2.08v6.17c0,1.15.93,2.08,2.08,2.08s2.08-.93,2.08-2.08v-6.17c0-1.15-.93-2.08-2.08-2.08Z"/>
  <path class="cls-1" d="M31.28,35.27c-1.15,0-2.08.93-2.08,2.08v6.17c0,1.15.93,2.08,2.08,2.08s2.08-.93,2.08-2.08v-6.17c0-1.15-.93-2.08-2.08-2.08Z"/>
  <path class="cls-1" d="M60.43,45.72c-5.75,0-10.42,4.67-10.42,10.42s4.67,10.42,10.42,10.42,10.42-4.67,10.42-10.42-4.67-10.42-10.42-10.42ZM60.43,62.4c-3.45,0-6.26-2.81-6.26-6.26s2.81-6.26,6.26-6.26,6.26,2.81,6.26,6.26-2.81,6.26-6.26,6.26Z"/>
  <path class="cls-1" d="M14.65,60.19c-2.33,0-4.23,1.9-4.23,4.23s1.9,4.23,4.23,4.23,4.23-1.9,4.23-4.23-1.9-4.23-4.23-4.23ZM14.58,64.42s.03-.07.07-.07.07.03.07.07c0,.08-.14.08-.14,0Z"/>
</svg>