<?xml version="1.0" encoding="UTF-8"?>
<svg id="Layer_1" data-name="Layer 1" xmlns="http://www.w3.org/2000/svg" xmlns:xlink="http://www.w3.org/1999/xlink" viewBox="0 0 514.48 170.31">
  <defs>
    <style>
      .cls-1 {
        fill: url(#Gradiente_sem_nome_4);
      }

      .cls-2 {
        fill: url(#Gradiente_sem_nome_2);
      }

      .cls-3 {
        fill: url(#Gradiente_sem_nome_5);
      }

      .cls-4 {
        fill: url(#Gradiente_sem_nome_3);
      }

      .cls-5 {
        fill: none;
        stroke: #fff;
        stroke-miterlimit: 10;
        stroke-width: 3px;
      }

      .cls-6, .cls-7 {
        fill: #fff;
      }

      .cls-8 {
        opacity: .2;
      }

      .cls-8, .cls-9 {
        fill: #010101;
      }

      .cls-8, .cls-9, .cls-7 {
        isolation: isolate;
      }

      .cls-9 {
        opacity: .12;
      }

      .cls-7 {
        opacity: .25;
      }
    </style>
    <linearGradient id="Gradiente_sem_nome_5" data-name="Gradiente sem nome 5" x1="-479.65" y1="-227.13" x2="-522.49" y2="-269.98" gradientTransform="translate(735.9 -256.74) scale(1.36 -1.36)" gradientUnits="userSpaceOnUse">
      <stop offset="0" stop-color="#4696d2"/>
      <stop offset="0" stop-color="#4598d3"/>
      <stop offset=".26" stop-color="#3fb9eb"/>
      <stop offset=".51" stop-color="#4ac1ed"/>
      <stop offset=".76" stop-color="#5cc4e6"/>
      <stop offset="1" stop-color="#60c4e5"/>
    </linearGradient>
    <linearGradient id="Gradiente_sem_nome_2" data-name="Gradiente sem nome 2" x1="-448.92" y1="-255.94" x2="-510.69" y2="-255.94" gradientTransform="translate(735.9 -256.74) scale(1.36 -1.36)" gradientUnits="userSpaceOnUse">
      <stop offset="0" stop-color="#ffe00a"/>
      <stop offset=".41" stop-color="#fbbc0f"/>
      <stop offset=".78" stop-color="#f7a418"/>
      <stop offset="1" stop-color="#f59a1b"/>
    </linearGradient>
    <linearGradient id="Gradiente_sem_nome_3" data-name="Gradiente sem nome 3" x1="-471.91" y1="-261.82" x2="-530.02" y2="-319.93" gradientTransform="translate(735.9 -256.74) scale(1.36 -1.36)" gradientUnits="userSpaceOnUse">
      <stop offset="0" stop-color="#e8404a"/>
      <stop offset="1" stop-color="#c31262"/>
    </linearGradient>
    <linearGradient id="Gradiente_sem_nome_4" data-name="Gradiente sem nome 4" x1="-516.67" y1="-205.34" x2="-490.72" y2="-231.29" gradientTransform="translate(735.9 -256.74) scale(1.36 -1.36)" gradientUnits="userSpaceOnUse">
      <stop offset="0" stop-color="#32a071"/>
      <stop offset=".07" stop-color="#2da771"/>
      <stop offset=".48" stop-color="#4fb26f"/>
      <stop offset=".8" stop-color="#61b668"/>
      <stop offset="1" stop-color="#64b664"/>
    </linearGradient>
  </defs>
  <path class="cls-5" d="M512.98,146.2c0,12.49-10.12,22.61-22.61,22.61H24.11c-12.49,0-22.61-10.13-22.61-22.61V24.11C1.5,11.62,11.62,1.5,24.11,1.5h466.26c12.48,0,22.61,10.12,22.61,22.61v122.09Z"/>
  <g>
    <path class="cls-6" d="M159.13,25.32c1.69-.25,3.69-.45,5.89-.45,3.98,0,6.81.92,8.69,2.67,1.91,1.75,3.02,4.23,3.02,7.7s-1.08,6.36-3.09,8.33c-2,2-5.31,3.09-9.48,3.09-1.97,0-3.63-.09-5.03-.25v-21.09ZM161.9,44.28c.7.13,1.72.16,2.8.16,5.92,0,9.13-3.31,9.13-9.1.03-5.06-2.83-8.27-8.69-8.27-1.43,0-2.51.13-3.25.29v16.92Z"/>
    <path class="cls-6" d="M183.34,26.75c.03.95-.67,1.72-1.78,1.72-.99,0-1.69-.76-1.69-1.72s.73-1.75,1.75-1.75,1.72.76,1.72,1.75ZM180.22,46.47v-15.4h2.8v15.4h-2.8Z"/>
    <path class="cls-6" d="M187.29,43.61c.83.54,2.29,1.11,3.69,1.11,2.04,0,2.99-1.02,2.99-2.29,0-1.34-.8-2.07-2.86-2.83-2.77-.99-4.07-2.51-4.07-4.36,0-2.48,2-4.52,5.31-4.52,1.56,0,2.93.45,3.79.95l-.7,2.04c-.6-.38-1.72-.89-3.15-.89-1.65,0-2.58.95-2.58,2.1,0,1.27.92,1.85,2.93,2.61,2.67,1.02,4.04,2.35,4.04,4.64,0,2.7-2.1,4.61-5.76,4.61-1.69,0-3.25-.41-4.33-1.05l.7-2.13Z"/>
    <path class="cls-6" d="M200.26,36.1c0-1.97-.06-3.56-.13-5.03h2.51l.13,2.64h.06c1.15-1.88,2.96-2.99,5.47-2.99,3.72,0,6.52,3.15,6.52,7.83,0,5.54-3.37,8.27-7,8.27-2.04,0-3.82-.89-4.74-2.42h-.06v8.37h-2.77v-16.67ZM203.03,40.2c0,.41.06.8.13,1.15.51,1.94,2.19,3.28,4.2,3.28,2.96,0,4.68-2.42,4.68-5.95,0-3.09-1.62-5.73-4.58-5.73-1.91,0-3.69,1.37-4.23,3.47-.1.35-.19.76-.19,1.15v2.64Z"/>
    <path class="cls-6" d="M232.3,38.65c0,5.69-3.95,8.18-7.67,8.18-4.17,0-7.38-3.05-7.38-7.92,0-5.15,3.37-8.18,7.64-8.18s7.41,3.21,7.41,7.92ZM220.08,38.8c0,3.37,1.94,5.92,4.68,5.92s4.68-2.51,4.68-5.98c0-2.61-1.3-5.92-4.61-5.92s-4.74,3.05-4.74,5.98Z"/>
    <path class="cls-6" d="M235.83,35.24c0-1.59-.03-2.9-.13-4.17h2.48l.16,2.54h.06c.76-1.46,2.55-2.89,5.09-2.89,2.13,0,5.44,1.27,5.44,6.55v9.19h-2.8v-8.88c0-2.48-.92-4.55-3.56-4.55-1.85,0-3.28,1.3-3.75,2.86-.13.35-.19.83-.19,1.3v9.26h-2.8v-11.23Z"/>
    <path class="cls-6" d="M259.18,24.42l-3.88,4.55h-2l2.8-4.55h3.09ZM253.48,46.47v-15.4h2.8v15.4h-2.8Z"/>
    <path class="cls-6" d="M262.01,31.07l3.02,8.65c.51,1.4.92,2.67,1.24,3.95h.1c.35-1.27.8-2.54,1.3-3.95l2.99-8.65h2.93l-6.04,15.4h-2.67l-5.85-15.4h2.99Z"/>
    <path class="cls-6" d="M277.47,39.28c.06,3.79,2.48,5.34,5.28,5.34,2,0,3.21-.35,4.26-.79l.48,2c-.99.45-2.67.96-5.12.96-4.74,0-7.57-3.12-7.57-7.76s2.74-8.3,7.22-8.3c5.03,0,6.36,4.42,6.36,7.25,0,.57-.06,1.02-.1,1.3h-10.82ZM285.68,37.28c.03-1.78-.73-4.55-3.88-4.55-2.83,0-4.07,2.61-4.29,4.55h8.18Z"/>
    <path class="cls-6" d="M291.85,23.88h2.8v22.59h-2.8v-22.59Z"/>
    <path class="cls-6" d="M307.66,39.28c.06,3.79,2.48,5.34,5.28,5.34,2,0,3.21-.35,4.26-.79l.48,2c-.99.45-2.67.96-5.12.96-4.74,0-7.57-3.12-7.57-7.76s2.74-8.3,7.22-8.3c5.03,0,6.36,4.42,6.36,7.25,0,.57-.06,1.02-.1,1.3h-10.82ZM315.87,37.28c.03-1.78-.73-4.55-3.88-4.55-2.83,0-4.07,2.61-4.29,4.55h8.18Z"/>
    <path class="cls-6" d="M322.04,35.24c0-1.59-.03-2.9-.13-4.17h2.45l.13,2.48h.1c.86-1.46,2.29-2.83,4.84-2.83,2.1,0,3.69,1.27,4.36,3.09h.06c.48-.86,1.08-1.53,1.72-2,.92-.7,1.94-1.08,3.4-1.08,2.04,0,5.06,1.34,5.06,6.68v9.07h-2.74v-8.72c0-2.96-1.08-4.74-3.34-4.74-1.59,0-2.83,1.18-3.31,2.55-.13.38-.22.89-.22,1.4v9.51h-2.74v-9.23c0-2.45-1.08-4.23-3.21-4.23-1.75,0-3.02,1.4-3.47,2.8-.16.41-.22.89-.22,1.37v9.29h-2.74v-11.23Z"/>
  </g>
  <g>
    <path class="cls-6" d="M256.52,82.3c-9.48,0-17.19,7.2-17.19,17.14s7.71,17.14,17.19,17.14,17.19-7.25,17.19-17.14-7.71-17.14-17.19-17.14ZM256.52,109.85c-5.17,0-9.69-4.31-9.69-10.4s4.46-10.4,9.69-10.4,9.69,4.21,9.69,10.4c-.05,6.09-4.51,10.4-9.69,10.4ZM302.58,86.16h-.25c-1.67-2.03-4.92-3.85-9.03-3.85-8.57,0-16.43,7.56-16.43,17.19s7.86,17.09,16.43,17.09c4.11,0,7.35-1.83,9.03-3.91h.25v2.49c0,6.54-3.5,10.04-9.13,10.04-4.62,0-7.46-3.3-8.62-6.09l-6.54,2.74c1.88,4.56,6.9,10.14,15.22,10.14,8.83,0,16.28-5.17,16.28-17.85v-30.79h-7.15l-.05,2.79ZM293.96,109.85c-5.17,0-9.54-4.36-9.54-10.35s4.36-10.45,9.54-10.45,9.13,4.41,9.13,10.45-4.01,10.35-9.13,10.35ZM218.99,82.3c-9.48,0-17.19,7.2-17.19,17.14s7.71,17.14,17.19,17.14,17.19-7.25,17.19-17.14-7.71-17.14-17.19-17.14h0ZM218.99,109.85c-5.17,0-9.69-4.31-9.69-10.4s4.46-10.4,9.69-10.4,9.69,4.21,9.69,10.4c-.05,6.09-4.51,10.4-9.69,10.4ZM174.3,87.53v7.25h17.4c-.51,4.11-1.88,7.1-3.96,9.18-2.54,2.54-6.49,5.33-13.44,5.33-10.7,0-19.07-8.62-19.07-19.32s8.37-19.32,19.07-19.32c5.78,0,9.99,2.28,13.14,5.17l5.12-5.12c-4.36-4.16-10.14-7.35-18.26-7.35-14.66,0-27.03,11.97-27.03,26.63s12.33,26.63,27.03,26.63c7.91,0,13.9-2.59,18.56-7.46,4.82-4.82,6.29-11.56,6.29-16.99,0-1.67-.15-3.25-.41-4.56l-24.45-.05ZM356.9,93.26c-1.42-3.85-5.78-10.91-14.66-10.91s-16.18,6.95-16.18,17.14c0,9.59,7.25,17.14,16.99,17.14,7.86,0,12.43-4.82,14.3-7.61l-5.83-3.91c-1.93,2.84-4.62,4.72-8.42,4.72s-6.54-1.78-8.32-5.17l22.93-9.48-.81-1.93ZM333.57,98.94c-.2-6.64,5.12-9.99,8.98-9.99,2.99,0,5.53,1.47,6.34,3.65l-15.32,6.34ZM314.9,115.58h7.51v-50.37h-7.51v50.37ZM392.2,65.21h-18.01v50.37h7.51v-19.07h10.5c8.32,0,16.54-6.04,16.54-15.67s-8.22-15.62-16.54-15.62ZM392.41,89.41h-10.7v-17.25h10.7c5.63,0,8.83,4.67,8.83,8.62s-3.2,8.62-8.83,8.62ZM412.9,115.58h7.51v-50.37h-7.51v50.37ZM438.87,82.2c-5.43,0-11.11,2.38-13.44,7.71l6.7,2.79c1.42-2.79,4.06-3.7,6.85-3.7,3.91,0,7.86,2.33,7.91,6.49v.51c-1.37-.76-4.26-1.93-7.86-1.93-7.2,0-14.51,3.96-14.51,11.36,0,6.75,5.88,11.06,12.53,11.06,5.07,0,7.86-2.28,9.59-4.92h.25v3.91h7.25v-19.32c.05-8.93-6.64-13.95-15.27-13.95h0ZM437.95,109.85c-2.49,0-5.88-1.22-5.88-4.26,0-3.91,4.26-5.38,7.96-5.38,3.3,0,4.87.71,6.85,1.67-.56,4.67-4.56,7.96-8.93,7.96h0ZM480.61,83.32l-8.62,21.86h-.25l-8.93-21.86h-8.12l13.39,30.53-7.66,17.04h7.86l20.69-47.53h-8.37v-.05Z"/>
    <path class="cls-3" d="M44.46,47.97c-1.01,1.07-1.62,2.74-1.62,4.87v76.74c0,2.13.61,3.8,1.62,4.87l.25.25,43.01-43.01v-1.01l-43.01-43.01-.25.3Z"/>
    <path class="cls-2" d="M102.02,106.04l-14.3-14.35v-1.01l14.35-14.35.3.2,16.99,9.64c4.87,2.74,4.87,7.25,0,10.04l-16.99,9.64-.36.2Z"/>
    <path class="cls-4" d="M102.38,105.84l-14.66-14.66-43.27,43.27c1.57,1.67,4.26,1.93,7.2.2l50.72-28.81Z"/>
    <path class="cls-1" d="M102.38,76.57l-50.72-28.81c-2.99-1.67-5.63-1.47-7.2.2l43.27,43.27,14.66-14.66Z"/>
    <path class="cls-8" d="M102.02,105.53l-50.37,28.61c-2.84,1.62-5.33,1.52-6.95.05l-.25.25.25.25c1.62,1.47,4.16,1.57,6.95-.05l50.72-28.81-.36-.3Z"/>
    <path class="cls-9" d="M44.46,133.94c-1.01-1.07-1.62-2.74-1.62-4.87v.51c0,2.13.61,3.8,1.62,4.87l.25-.25-.25-.25ZM119.32,95.69l-17.3,9.84.3.3,16.99-9.64c2.43-1.37,3.65-3.2,3.65-5.02-.2,1.67-1.42,3.25-3.65,4.51Z"/>
    <path class="cls-7" d="M51.66,48.22l67.66,38.45c2.18,1.27,3.45,2.84,3.65,4.51,0-1.83-1.22-3.65-3.65-5.02L51.66,47.71c-4.87-2.74-8.83-.46-8.83,5.07v.51c0-5.53,3.96-7.81,8.83-5.07Z"/>
  </g>
</svg>